<?xml version="1.0" standalone="no"?>
<!DOCTYPE svg PUBLIC "-//W3C//DTD SVG 20010904//EN"
 "http://www.w3.org/TR/2001/REC-SVG-20010904/DTD/svg10.dtd">
<svg version="1.0" xmlns="http://www.w3.org/2000/svg"
 width="117.000000pt" height="105.000000pt" viewBox="0 0 117.000000 105.000000"
 preserveAspectRatio="xMidYMid meet">

<g transform="translate(0.000000,105.000000) scale(0.100000,-0.100000)"
fill="#000000" stroke="none">
<path d="M346 1031 c-25 -4 -45 -15 -57 -31 -26 -35 -225 -768 -253 -933 -6
-34 -4 -38 19 -47 34 -13 588 -24 640 -13 32 7 44 16 57 43 21 42 114 351 159
526 l33 127 -22 17 c-42 34 -309 38 -388 5 -39 -16 -58 -61 -40 -96 13 -27 44
-36 133 -38 87 -1 113 -13 113 -50 0 -17 -10 -42 -23 -56 -21 -25 -31 -28
-128 -35 -151 -11 -162 -19 -204 -154 -32 -101 -67 -149 -108 -149 -45 0 -60
21 -53 73 8 57 95 392 137 522 24 74 38 104 61 123 l30 25 323 0 323 0 32 36
c23 27 30 44 28 67 -3 30 -6 32 -53 39 -62 8 -706 7 -759 -1z"/>
</g>
</svg>
