<svg width="32" height="31" viewBox="0 0 32 31" fill="none" xmlns="http://www.w3.org/2000/svg">
<rect width="32" height="31" rx="10" fill="url(#paint0_linear_3_305)"/>
<path d="M11.5614 6.11975C11.1171 6.19318 10.7616 6.39511 10.5483 6.68882C10.0861 7.33131 6.54903 20.7869 6.05135 23.8158C5.9447 24.44 5.98025 24.5134 6.38906 24.6786C6.99339 24.9173 16.8404 25.1192 17.7647 24.9173C18.3335 24.7888 18.5468 24.6235 18.7778 24.1279C19.1511 23.3569 20.8041 17.6846 21.604 14.4722L22.1905 12.1408L21.7995 11.8288C21.0529 11.2046 16.3072 11.1312 14.903 11.737C14.2098 12.0307 13.8721 12.8567 14.192 13.4992C14.4231 13.9949 14.9741 14.1601 16.556 14.1968C18.1024 14.2152 18.5645 14.4354 18.5645 15.1147C18.5645 15.4267 18.3868 15.8856 18.1557 16.1426C17.7825 16.6016 17.6047 16.6566 15.8806 16.7851C13.1967 16.9871 13.0011 17.1339 12.2546 19.6121C11.6858 21.4662 11.0637 22.3473 10.335 22.3473C9.53514 22.3473 9.26852 21.9618 9.39294 21.0072C9.53514 19.9609 11.0815 13.8113 11.828 11.4249C12.2546 10.0665 12.5035 9.51578 12.9123 9.167L13.4455 8.70808H19.1866H24.9278L25.4966 8.04723C25.9054 7.55159 26.0298 7.23952 25.9942 6.81731C25.9409 6.26661 25.8876 6.22989 25.0522 6.10139C23.9502 5.95454 12.5035 5.97289 11.5614 6.11975Z" fill="white"/>
<defs>
<linearGradient id="paint0_linear_3_305" x1="3.06686" y1="40.3" x2="45.6161" y2="33.7333" gradientUnits="userSpaceOnUse">
<stop stop-color="#D86AFF"/>
<stop offset="1" stop-color="#BD00FF"/>
</linearGradient>
</defs>
</svg>
